<svg xmlns="http://www.w3.org/2000/svg" xmlns:xlink="http://www.w3.org/1999/xlink" xmlns:lucid="lucid" width="1183" height="1329"><g transform="translate(-497.5000160377358 380.49999999999994)" lucid:page-tab-id="0_0"><path d="M620-255c0 8.28 6.72 15 15 15h450c8.28 0 15-6.72 15-15m0-90c0-8.28-6.72-15-15-15H635c-8.28 0-15 6.72-15 15" stroke="#3a414a" fill="none"/><path d="M680 5a5 5 0 0 1 5-5h610a5 5 0 0 1 5 5v414a5 5 0 0 1-5 5H685a5 5 0 0 1-5-5z" fill="#fff"/><path d="M680 40V5a5 5 0 0 1 5-5h610a5 5 0 0 1 5 5v35" fill="#6db1ff"/><path d="M680 5a5 5 0 0 1 5-5h610a5 5 0 0 1 5 5v414a5 5 0 0 1-5 5H685a5 5 0 0 1-5-5zM680 40h620M777.16 40v384M1020 40v384" stroke="#282c33" fill="none"/><use xlink:href="#a" transform="matrix(1,0,0,1,690,0) translate(0 23.6)"/><use xlink:href="#b" transform="matrix(1,0,0,1,685,42.5) translate(32 17.1)"/><use xlink:href="#c" transform="matrix(1,0,0,1,782.1606269643047,42.5) translate(0 17.1)"/><use xlink:href="#d" transform="matrix(1,0,0,1,1025,42.5) translate(0 17.1)"/><use xlink:href="#e" transform="matrix(1,0,0,1,782.1606269643047,74.5) translate(0 17.1)"/><use xlink:href="#f" transform="matrix(1,0,0,1,1025,74.5) translate(0 17.1)"/><use xlink:href="#g" transform="matrix(1,0,0,1,782.1606269643047,106.5) translate(0 17.1)"/><use xlink:href="#h" transform="matrix(1,0,0,1,1025,106.5) translate(0 17.1)"/><use xlink:href="#i" transform="matrix(1,0,0,1,782.1606269643047,138.5) translate(0 17.1)"/><use xlink:href="#h" transform="matrix(1,0,0,1,1025,138.5) translate(0 17.1)"/><use xlink:href="#j" transform="matrix(1,0,0,1,782.1606269643047,170.5) translate(0 17.1)"/><use xlink:href="#f" transform="matrix(1,0,0,1,1025,170.5) translate(0 17.1)"/><use xlink:href="#k" transform="matrix(1,0,0,1,782.1606269643047,202.5) translate(0 17.1)"/><use xlink:href="#f" transform="matrix(1,0,0,1,1025,202.5) translate(0 17.1)"/><use xlink:href="#l" transform="matrix(1,0,0,1,782.1606269643047,234.5) translate(0 17.1)"/><use xlink:href="#f" transform="matrix(1,0,0,1,1025,234.5) translate(0 17.1)"/><use xlink:href="#m" transform="matrix(1,0,0,1,782.1606269643047,266.5) translate(0 17.1)"/><use xlink:href="#f" transform="matrix(1,0,0,1,1025,266.5) translate(0 17.1)"/><use xlink:href="#n" transform="matrix(1,0,0,1,782.1606269643047,298.5) translate(0 17.1)"/><use xlink:href="#h" transform="matrix(1,0,0,1,1025,298.5) translate(0 17.1)"/><use xlink:href="#o" transform="matrix(1,0,0,1,782.1606269643047,330.5) translate(0 17.1)"/><use xlink:href="#h" transform="matrix(1,0,0,1,1025,330.5) translate(0 17.1)"/><use xlink:href="#j" transform="matrix(1,0,0,1,782.1606269643047,362.5) translate(0 17.1)"/><use xlink:href="#p" transform="matrix(1,0,0,1,1025,362.5) translate(0 17.1)"/><use xlink:href="#m" transform="matrix(1,0,0,1,782.1606269643047,394.5) translate(0 17.1)"/><use xlink:href="#p" transform="matrix(1,0,0,1,1025,394.5) translate(0 17.1)"/><path d="M1360 605a5 5 0 0 1 5-5h290a5 5 0 0 1 5 5v254a5 5 0 0 1-5 5h-290a5 5 0 0 1-5-5z" fill="#fff"/><path d="M1360 640v-35a5 5 0 0 1 5-5h290a5 5 0 0 1 5 5v35" fill="#6db1ff"/><path d="M1360 605a5 5 0 0 1 5-5h290a5 5 0 0 1 5 5v254a5 5 0 0 1-5 5h-290a5 5 0 0 1-5-5zM1360 640h300M1398.5 640v224M1540 640v224" stroke="#282c33" fill="none"/><use xlink:href="#q" transform="matrix(1,0,0,1,1370,600) translate(0 23.6)"/><use xlink:href="#r" transform="matrix(1,0,0,1,1365,642.5) translate(3.0249999999999986 17.1)"/><use xlink:href="#c" transform="matrix(1,0,0,1,1403.5025869977567,642.5) translate(0 17.1)"/><use xlink:href="#d" transform="matrix(1,0,0,1,1545,642.5) translate(0 17.1)"/><use xlink:href="#r" transform="matrix(1,0,0,1,1365,674.5) translate(3.0249999999999986 17.1)"/><use xlink:href="#s" transform="matrix(1,0,0,1,1403.5025869977567,674.5) translate(0 17.1)"/><use xlink:href="#d" transform="matrix(1,0,0,1,1545,674.5) translate(0 17.1)"/><use xlink:href="#t" transform="matrix(1,0,0,1,1403.5025869977567,706.5) translate(0 17.1)"/><use xlink:href="#u" transform="matrix(1,0,0,1,1545,706.5) translate(0 17.1)"/><use xlink:href="#v" transform="matrix(1,0,0,1,1403.5025869977567,738.5) translate(0 17.1)"/><use xlink:href="#u" transform="matrix(1,0,0,1,1545,738.5) translate(0 17.1)"/><use xlink:href="#w" transform="matrix(1,0,0,1,1403.5025869977567,770.5) translate(0 17.1)"/><use xlink:href="#x" transform="matrix(1,0,0,1,1545,770.5) translate(0 17.1)"/><use xlink:href="#g" transform="matrix(1,0,0,1,1403.5025869977567,802.5) translate(0 17.1)"/><use xlink:href="#h" transform="matrix(1,0,0,1,1545,802.5) translate(0 17.1)"/><use xlink:href="#i" transform="matrix(1,0,0,1,1403.5025869977567,834.5) translate(0 17.1)"/><use xlink:href="#h" transform="matrix(1,0,0,1,1545,834.5) translate(0 17.1)"/><path d="M1220-344a16 16 0 0 1 16-16h251.23a16 16 0 0 1 16 16v148a16 16 0 0 1-16 16H1236a16 16 0 0 1-16-16z" stroke="#4c535d" fill="#fff"/><path d="M1319.2-239.53c0 11.74-9.5 21.26-21.25 21.26-11.74 0-21.26-9.52-21.26-21.26 0-11.74 9.5-21.26 21.25-21.26 11.74 0 21.26 9.53 21.26 21.27z" stroke="#000" stroke-opacity=".25" fill="#6db1ff"/><use xlink:href="#y" transform="matrix(1,0,0,1,1276.6929133858268,-317.48031496062987) translate(0 14.4)"/><use xlink:href="#z" transform="matrix(1,0,0,1,1340.4724409448818,-260.7874015748031) translate(0 24.3)"/><path d="M540 605a5 5 0 0 1 5-5h430a5 5 0 0 1 5 5v318a5 5 0 0 1-5 5H545a5 5 0 0 1-5-5z" fill="#fff"/><path d="M540 640v-35a5 5 0 0 1 5-5h430a5 5 0 0 1 5 5v35" fill="#6db1ff"/><path d="M540 605a5 5 0 0 1 5-5h430a5 5 0 0 1 5 5v318a5 5 0 0 1-5 5H545a5 5 0 0 1-5-5zM540 640h440M582.83 640v288M878.83 640v288" stroke="#282c33" fill="none"/><use xlink:href="#A" transform="matrix(1,0,0,1,550,600) translate(0 23.6)"/><use xlink:href="#r" transform="matrix(1,0,0,1,545,642.5) translate(5.024999999999999 17.1)"/><use xlink:href="#c" transform="matrix(1,0,0,1,587.833333333333,642.5) translate(0 17.1)"/><use xlink:href="#d" transform="matrix(1,0,0,1,883.833333333333,642.5) translate(0 17.1)"/><use xlink:href="#b" transform="matrix(1,0,0,1,545,674.5) translate(4.5 17.1)"/><use xlink:href="#s" transform="matrix(1,0,0,1,587.833333333333,674.5) translate(0 17.1)"/><use xlink:href="#d" transform="matrix(1,0,0,1,883.833333333333,674.5) translate(0 17.1)"/><use xlink:href="#B" transform="matrix(1,0,0,1,587.833333333333,706.5) translate(0 17.1)"/><use xlink:href="#d" transform="matrix(1,0,0,1,883.833333333333,706.5) translate(0 17.1)"/><use xlink:href="#C" transform="matrix(1,0,0,1,587.833333333333,738.5) translate(0 17.1)"/><use xlink:href="#f" transform="matrix(1,0,0,1,883.833333333333,738.5) translate(0 17.1)"/><use xlink:href="#D" transform="matrix(1,0,0,1,587.833333333333,770.5) translate(0 17.1)"/><use xlink:href="#f" transform="matrix(1,0,0,1,883.833333333333,770.5) translate(0 17.1)"/><use xlink:href="#E" transform="matrix(1,0,0,1,587.833333333333,802.5) translate(0 17.1)"/><use xlink:href="#d" transform="matrix(1,0,0,1,883.833333333333,802.5) translate(0 17.1)"/><use xlink:href="#F" transform="matrix(1,0,0,1,587.833333333333,834.5) translate(0 17.1)"/><use xlink:href="#G" transform="matrix(1,0,0,1,883.833333333333,834.5) translate(0 17.1)"/><use xlink:href="#H" transform="matrix(1,0,0,1,587.833333333333,866.5) translate(0 17.1)"/><use xlink:href="#h" transform="matrix(1,0,0,1,883.833333333333,866.5) translate(0 17.1)"/><use xlink:href="#i" transform="matrix(1,0,0,1,587.833333333333,898.5) translate(0 17.1)"/><use xlink:href="#h" transform="matrix(1,0,0,1,883.833333333333,898.5) translate(0 17.1)"/><path d="M660-332a8 8 0 0 1 8-8h364a8 8 0 0 1 8 8v44a8 8 0 0 1-8 8H668a8 8 0 0 1-8-8z" fill="none"/><use xlink:href="#I" transform="matrix(1,0,0,1,660,-340) translate(54.70277777777784 30.399999999999984)"/><use xlink:href="#J" transform="matrix(1,0,0,1,660,-340) translate(153.71388888888887 30.399999999999984)"/><use xlink:href="#K" transform="matrix(1,0,0,1,660,-340) translate(3.0861111111112223 75.99999999999997)"/><use xlink:href="#L" transform="matrix(1,0,0,1,660,-340) translate(230.66388888888886 75.99999999999997)"/><use xlink:href="#M" transform="matrix(1,0,0,1,660,-340) translate(190.5 121.59999999999994)"/><path d="M1000.5 688h339.6" stroke="#3a414a" fill="none"/><path d="M1000.5 698v-20M980.5 688h20" stroke="#3a414a" fill="#fff"/><path d="M1359.28 698l-20-10 20-10" stroke="#3a414a" fill="#fff" fill-opacity="0"/><path d="M1359.28 688h-20" stroke="#3a414a" fill="#fff"/><path d="M1320.5 56a9.5 9.5 0 0 1 9.5 9.5v580.4a10.1 10.1 0 0 0 10.1 10.1" stroke="#3a414a" fill="none"/><path d="M1320.5 66V46M1300.5 56h20" stroke="#3a414a" fill="#fff"/><path d="M1359.28 666l-20-10 20-10" stroke="#3a414a" fill="#fff" fill-opacity="0"/><path d="M1359.28 656h-20" stroke="#3a414a" fill="#fff"/><path d="M659.5 56h-148a12 12 0 0 0-12 12v576a12 12 0 0 0 12 12h8.6" stroke="#3a414a" fill="none"/><path d="M659.5 46v20M679.5 56h-20" stroke="#3a414a" fill="#fff"/><path d="M539.28 666l-20-10 20-10" stroke="#3a414a" fill="#fff" fill-opacity="0"/><path d="M539.28 656h-20" stroke="#3a414a" fill="#fff"/><defs><path fill="#333" d="M232-93c-1 65-40 97-104 97C67 4 28-28 28-90v-158h33c8 89-33 224 67 224 102 0 64-133 71-224h33v155" id="N"/><path fill="#333" d="M135-143c-3-34-86-38-87 0 15 53 115 12 119 90S17 21 10-45l28-5c4 36 97 45 98 0-10-56-113-15-118-90-4-57 82-63 122-42 12 7 21 19 24 35" id="O"/><path fill="#333" d="M100-194c63 0 86 42 84 106H49c0 40 14 67 53 68 26 1 43-12 49-29l28 8c-11 28-37 45-77 45C44 4 14-33 15-96c1-61 26-98 85-98zm52 81c6-60-76-77-97-28-3 7-6 17-6 28h103" id="P"/><path fill="#333" d="M114-163C36-179 61-72 57 0H25l-1-190h30c1 12-1 29 2 39 6-27 23-49 58-41v29" id="Q"/><g id="a"><use transform="matrix(0.05,0,0,0.05,0,0)" xlink:href="#N"/><use transform="matrix(0.05,0,0,0.05,12.950000000000001,0)" xlink:href="#O"/><use transform="matrix(0.05,0,0,0.05,21.950000000000003,0)" xlink:href="#P"/><use transform="matrix(0.05,0,0,0.05,31.950000000000003,0)" xlink:href="#Q"/><use transform="matrix(0.05,0,0,0.05,37.900000000000006,0)" xlink:href="#O"/></g><path d="M30-248c87 1 191-15 191 75 0 78-77 80-158 76V0H30v-248zm33 125c57 0 124 11 124-50 0-59-68-47-124-48v98" id="R"/><path d="M194 0L95-120 63-95V0H30v-248h33v124l119-124h40L117-140 236 0h-42" id="S"/><g id="b"><use transform="matrix(0.05,0,0,0.05,0,0)" xlink:href="#R"/><use transform="matrix(0.05,0,0,0.05,12,0)" xlink:href="#S"/></g><path fill="#333" d="M84 4C-5 8 30-112 23-190h32v120c0 31 7 50 39 49 72-2 45-101 50-169h31l1 190h-30c-1-10 1-25-2-33-11 22-28 36-60 37" id="T"/><path fill="#333" d="M-5 72V49h209v23H-5" id="U"/><path fill="#333" d="M24-231v-30h32v30H24zM24 0v-190h32V0H24" id="V"/><path fill="#333" d="M85-194c31 0 48 13 60 33l-1-100h32l1 261h-30c-2-10 0-23-3-31C134-8 116 4 85 4 32 4 16-35 15-94c0-66 23-100 70-100zm9 24c-40 0-46 34-46 75 0 40 6 74 45 74 42 0 51-32 51-76 0-42-9-74-50-73" id="W"/><g id="c"><use transform="matrix(0.05,0,0,0.05,0,0)" xlink:href="#T"/><use transform="matrix(0.05,0,0,0.05,10,0)" xlink:href="#O"/><use transform="matrix(0.05,0,0,0.05,19,0)" xlink:href="#P"/><use transform="matrix(0.05,0,0,0.05,29,0)" xlink:href="#Q"/><use transform="matrix(0.05,0,0,0.05,34.95,0)" xlink:href="#U"/><use transform="matrix(0.05,0,0,0.05,44.95,0)" xlink:href="#V"/><use transform="matrix(0.05,0,0,0.05,48.900000000000006,0)" xlink:href="#W"/></g><path fill="#333" d="M117-194c89-4 53 116 60 194h-32v-121c0-31-8-49-39-48C34-167 62-67 57 0H25l-1-190h30c1 10-1 24 2 32 11-22 29-35 61-36" id="X"/><path fill="#333" d="M59-47c-2 24 18 29 38 22v24C64 9 27 4 27-40v-127H5v-23h24l9-43h21v43h35v23H59v120" id="Y"/><g id="d"><use transform="matrix(0.05,0,0,0.05,0,0)" xlink:href="#V"/><use transform="matrix(0.05,0,0,0.05,3.95,0)" xlink:href="#X"/><use transform="matrix(0.05,0,0,0.05,13.949999999999998,0)" xlink:href="#Y"/></g><path fill="#333" d="M141-36C126-15 110 5 73 4 37 3 15-17 15-53c-1-64 63-63 125-63 3-35-9-54-41-54-24 1-41 7-42 31l-33-3c5-37 33-52 76-52 45 0 72 20 72 64v82c-1 20 7 32 28 27v20c-31 9-61-2-59-35zM48-53c0 20 12 33 32 33 41-3 63-29 60-74-43 2-92-5-92 41" id="Z"/><path fill="#333" d="M210-169c-67 3-38 105-44 169h-31v-121c0-29-5-50-35-48C34-165 62-65 56 0H25l-1-190h30c1 10-1 24 2 32 10-44 99-50 107 0 11-21 27-35 58-36 85-2 47 119 55 194h-31v-121c0-29-5-49-35-48" id="aa"/><g id="e"><use transform="matrix(0.05,0,0,0.05,0,0)" xlink:href="#X"/><use transform="matrix(0.05,0,0,0.05,10,0)" xlink:href="#Z"/><use transform="matrix(0.05,0,0,0.05,20,0)" xlink:href="#aa"/><use transform="matrix(0.05,0,0,0.05,34.95,0)" xlink:href="#P"/></g><path fill="#333" d="M177-190C167-65 218 103 67 71c-23-6-38-20-44-43l32-5c15 47 100 32 89-28v-30C133-14 115 1 83 1 29 1 15-40 15-95c0-56 16-97 71-98 29-1 48 16 59 35 1-10 0-23 2-32h30zM94-22c36 0 50-32 50-73 0-42-14-75-50-75-39 0-46 34-46 75s6 73 46 73" id="ab"/><g id="f"><use transform="matrix(0.05,0,0,0.05,0,0)" xlink:href="#O"/><use transform="matrix(0.05,0,0,0.05,9,0)" xlink:href="#Y"/><use transform="matrix(0.05,0,0,0.05,14,0)" xlink:href="#Q"/><use transform="matrix(0.05,0,0,0.05,19.95,0)" xlink:href="#V"/><use transform="matrix(0.05,0,0,0.05,23.9,0)" xlink:href="#X"/><use transform="matrix(0.05,0,0,0.05,33.9,0)" xlink:href="#ab"/></g><path fill="#333" d="M96-169c-40 0-48 33-48 73s9 75 48 75c24 0 41-14 43-38l32 2c-6 37-31 61-74 61-59 0-76-41-82-99-10-93 101-131 147-64 4 7 5 14 7 22l-32 3c-4-21-16-35-41-35" id="ac"/><g id="g"><use transform="matrix(0.05,0,0,0.05,0,0)" xlink:href="#ac"/><use transform="matrix(0.05,0,0,0.05,9,0)" xlink:href="#Q"/><use transform="matrix(0.05,0,0,0.05,14.949999999999998,0)" xlink:href="#P"/><use transform="matrix(0.05,0,0,0.05,24.95,0)" xlink:href="#Z"/><use transform="matrix(0.05,0,0,0.05,34.95,0)" xlink:href="#Y"/><use transform="matrix(0.05,0,0,0.05,39.95,0)" xlink:href="#P"/><use transform="matrix(0.05,0,0,0.05,49.95,0)" xlink:href="#W"/><use transform="matrix(0.05,0,0,0.05,59.95,0)" xlink:href="#U"/><use transform="matrix(0.05,0,0,0.05,69.95,0)" xlink:href="#Z"/><use transform="matrix(0.05,0,0,0.05,79.95,0)" xlink:href="#Y"/></g><g id="h"><use transform="matrix(0.05,0,0,0.05,0,0)" xlink:href="#W"/><use transform="matrix(0.05,0,0,0.05,10,0)" xlink:href="#Z"/><use transform="matrix(0.05,0,0,0.05,20,0)" xlink:href="#Y"/><use transform="matrix(0.05,0,0,0.05,25,0)" xlink:href="#P"/><use transform="matrix(0.05,0,0,0.05,35,0)" xlink:href="#Y"/><use transform="matrix(0.05,0,0,0.05,40,0)" xlink:href="#V"/><use transform="matrix(0.05,0,0,0.05,43.95,0)" xlink:href="#aa"/><use transform="matrix(0.05,0,0,0.05,58.900000000000006,0)" xlink:href="#P"/></g><path fill="#333" d="M115-194c55 1 70 41 70 98S169 2 115 4C84 4 66-9 55-30l1 105H24l-1-265h31l2 30c10-21 28-34 59-34zm-8 174c40 0 45-34 45-75s-6-73-45-74c-42 0-51 32-51 76 0 43 10 73 51 73" id="ad"/><g id="i"><use transform="matrix(0.05,0,0,0.05,0,0)" xlink:href="#T"/><use transform="matrix(0.05,0,0,0.05,10,0)" xlink:href="#ad"/><use transform="matrix(0.05,0,0,0.05,20,0)" xlink:href="#W"/><use transform="matrix(0.05,0,0,0.05,30,0)" xlink:href="#Z"/><use transform="matrix(0.05,0,0,0.05,40,0)" xlink:href="#Y"/><use transform="matrix(0.05,0,0,0.05,45,0)" xlink:href="#P"/><use transform="matrix(0.05,0,0,0.05,55,0)" xlink:href="#W"/><use transform="matrix(0.05,0,0,0.05,65,0)" xlink:href="#U"/><use transform="matrix(0.05,0,0,0.05,75,0)" xlink:href="#Z"/><use transform="matrix(0.05,0,0,0.05,85,0)" xlink:href="#Y"/></g><path fill="#333" d="M24 0v-261h32V0H24" id="ae"/><g id="j"><use transform="matrix(0.05,0,0,0.05,0,0)" xlink:href="#P"/><use transform="matrix(0.05,0,0,0.05,10,0)" xlink:href="#aa"/><use transform="matrix(0.05,0,0,0.05,24.950000000000003,0)" xlink:href="#Z"/><use transform="matrix(0.05,0,0,0.05,34.95,0)" xlink:href="#V"/><use transform="matrix(0.05,0,0,0.05,38.900000000000006,0)" xlink:href="#ae"/></g><path fill="#333" d="M179-190L93 31C79 59 56 82 12 73V49c39 6 53-20 64-50L1-190h34L92-34l54-156h33" id="af"/><path fill="#333" d="M206 0h-36l-40-164L89 0H53L-1-190h32L70-26l43-164h34l41 164 42-164h31" id="ag"/><path fill="#333" d="M100-194c62-1 85 37 85 99 1 63-27 99-86 99S16-35 15-95c0-66 28-99 85-99zM99-20c44 1 53-31 53-75 0-43-8-75-51-75s-53 32-53 75 10 74 51 75" id="ah"/><g id="k"><use transform="matrix(0.05,0,0,0.05,0,0)" xlink:href="#P"/><use transform="matrix(0.05,0,0,0.05,10,0)" xlink:href="#X"/><use transform="matrix(0.05,0,0,0.05,20,0)" xlink:href="#ac"/><use transform="matrix(0.05,0,0,0.05,29,0)" xlink:href="#Q"/><use transform="matrix(0.05,0,0,0.05,34.95,0)" xlink:href="#af"/><use transform="matrix(0.05,0,0,0.05,43.95,0)" xlink:href="#ad"/><use transform="matrix(0.05,0,0,0.05,53.95,0)" xlink:href="#Y"/><use transform="matrix(0.05,0,0,0.05,58.95,0)" xlink:href="#P"/><use transform="matrix(0.05,0,0,0.05,68.95,0)" xlink:href="#W"/><use transform="matrix(0.05,0,0,0.05,78.95,0)" xlink:href="#U"/><use transform="matrix(0.05,0,0,0.05,88.95,0)" xlink:href="#ad"/><use transform="matrix(0.05,0,0,0.05,98.95,0)" xlink:href="#Z"/><use transform="matrix(0.05,0,0,0.05,108.95,0)" xlink:href="#O"/><use transform="matrix(0.05,0,0,0.05,117.95,0)" xlink:href="#O"/><use transform="matrix(0.05,0,0,0.05,126.95,0)" xlink:href="#ag"/><use transform="matrix(0.05,0,0,0.05,139.9,0)" xlink:href="#ah"/><use transform="matrix(0.05,0,0,0.05,149.9,0)" xlink:href="#Q"/><use transform="matrix(0.05,0,0,0.05,155.85,0)" xlink:href="#W"/></g><g id="l"><use transform="matrix(0.05,0,0,0.05,0,0)" xlink:href="#Q"/><use transform="matrix(0.05,0,0,0.05,5.95,0)" xlink:href="#P"/><use transform="matrix(0.05,0,0,0.05,15.949999999999998,0)" xlink:href="#O"/><use transform="matrix(0.05,0,0,0.05,24.95,0)" xlink:href="#P"/><use transform="matrix(0.05,0,0,0.05,34.95,0)" xlink:href="#Y"/><use transform="matrix(0.05,0,0,0.05,39.95,0)" xlink:href="#U"/><use transform="matrix(0.05,0,0,0.05,49.95,0)" xlink:href="#ad"/><use transform="matrix(0.05,0,0,0.05,59.95,0)" xlink:href="#Z"/><use transform="matrix(0.05,0,0,0.05,69.95,0)" xlink:href="#O"/><use transform="matrix(0.05,0,0,0.05,78.95,0)" xlink:href="#O"/><use transform="matrix(0.05,0,0,0.05,87.95,0)" xlink:href="#ag"/><use transform="matrix(0.05,0,0,0.05,100.9,0)" xlink:href="#ah"/><use transform="matrix(0.05,0,0,0.05,110.9,0)" xlink:href="#Q"/><use transform="matrix(0.05,0,0,0.05,116.85000000000001,0)" xlink:href="#W"/></g><path fill="#333" d="M143 0L79-87 56-68V0H24v-261h32v163l83-92h37l-77 82L181 0h-38" id="ai"/><g id="m"><use transform="matrix(0.05,0,0,0.05,0,0)" xlink:href="#Q"/><use transform="matrix(0.05,0,0,0.05,5.95,0)" xlink:href="#P"/><use transform="matrix(0.05,0,0,0.05,15.949999999999998,0)" xlink:href="#O"/><use transform="matrix(0.05,0,0,0.05,24.95,0)" xlink:href="#P"/><use transform="matrix(0.05,0,0,0.05,34.95,0)" xlink:href="#Y"/><use transform="matrix(0.05,0,0,0.05,39.95,0)" xlink:href="#U"/><use transform="matrix(0.05,0,0,0.05,49.95,0)" xlink:href="#ad"/><use transform="matrix(0.05,0,0,0.05,59.95,0)" xlink:href="#Z"/><use transform="matrix(0.05,0,0,0.05,69.95,0)" xlink:href="#O"/><use transform="matrix(0.05,0,0,0.05,78.95,0)" xlink:href="#O"/><use transform="matrix(0.05,0,0,0.05,87.95,0)" xlink:href="#ag"/><use transform="matrix(0.05,0,0,0.05,100.9,0)" xlink:href="#ah"/><use transform="matrix(0.05,0,0,0.05,110.9,0)" xlink:href="#Q"/><use transform="matrix(0.05,0,0,0.05,116.85000000000001,0)" xlink:href="#W"/><use transform="matrix(0.05,0,0,0.05,126.85000000000001,0)" xlink:href="#U"/><use transform="matrix(0.05,0,0,0.05,136.85000000000002,0)" xlink:href="#Y"/><use transform="matrix(0.05,0,0,0.05,141.85000000000002,0)" xlink:href="#ah"/><use transform="matrix(0.05,0,0,0.05,151.85000000000002,0)" xlink:href="#ai"/><use transform="matrix(0.05,0,0,0.05,160.85000000000002,0)" xlink:href="#P"/><use transform="matrix(0.05,0,0,0.05,170.85000000000002,0)" xlink:href="#X"/></g><g id="n"><use transform="matrix(0.05,0,0,0.05,0,0)" xlink:href="#Q"/><use transform="matrix(0.05,0,0,0.05,5.95,0)" xlink:href="#P"/><use transform="matrix(0.05,0,0,0.05,15.949999999999998,0)" xlink:href="#O"/><use transform="matrix(0.05,0,0,0.05,24.95,0)" xlink:href="#P"/><use transform="matrix(0.05,0,0,0.05,34.95,0)" xlink:href="#Y"/><use transform="matrix(0.05,0,0,0.05,39.95,0)" xlink:href="#U"/><use transform="matrix(0.05,0,0,0.05,49.95,0)" xlink:href="#ad"/><use transform="matrix(0.05,0,0,0.05,59.95,0)" xlink:href="#Z"/><use transform="matrix(0.05,0,0,0.05,69.95,0)" xlink:href="#O"/><use transform="matrix(0.05,0,0,0.05,78.95,0)" xlink:href="#O"/><use transform="matrix(0.05,0,0,0.05,87.95,0)" xlink:href="#ag"/><use transform="matrix(0.05,0,0,0.05,100.9,0)" xlink:href="#ah"/><use transform="matrix(0.05,0,0,0.05,110.9,0)" xlink:href="#Q"/><use transform="matrix(0.05,0,0,0.05,116.85000000000001,0)" xlink:href="#W"/><use transform="matrix(0.05,0,0,0.05,126.85000000000001,0)" xlink:href="#U"/><use transform="matrix(0.05,0,0,0.05,136.85000000000002,0)" xlink:href="#O"/><use transform="matrix(0.05,0,0,0.05,145.85000000000002,0)" xlink:href="#P"/><use transform="matrix(0.05,0,0,0.05,155.85000000000002,0)" xlink:href="#X"/><use transform="matrix(0.05,0,0,0.05,165.85000000000002,0)" xlink:href="#Y"/><use transform="matrix(0.05,0,0,0.05,170.85000000000002,0)" xlink:href="#U"/><use transform="matrix(0.05,0,0,0.05,180.85000000000002,0)" xlink:href="#Z"/><use transform="matrix(0.05,0,0,0.05,190.85000000000002,0)" xlink:href="#Y"/></g><path fill="#333" d="M115-194c53 0 69 39 70 98 0 66-23 100-70 100C84 3 66-7 56-30L54 0H23l1-261h32v101c10-23 28-34 59-34zm-8 174c40 0 45-34 45-75 0-40-5-75-45-74-42 0-51 32-51 76 0 43 10 73 51 73" id="aj"/><g id="o"><use transform="matrix(0.05,0,0,0.05,0,0)" xlink:href="#Q"/><use transform="matrix(0.05,0,0,0.05,5.95,0)" xlink:href="#P"/><use transform="matrix(0.05,0,0,0.05,15.949999999999998,0)" xlink:href="#aa"/><use transform="matrix(0.05,0,0,0.05,30.899999999999995,0)" xlink:href="#P"/><use transform="matrix(0.05,0,0,0.05,40.9,0)" xlink:href="#aa"/><use transform="matrix(0.05,0,0,0.05,55.85,0)" xlink:href="#aj"/><use transform="matrix(0.05,0,0,0.05,65.85,0)" xlink:href="#P"/><use transform="matrix(0.05,0,0,0.05,75.85,0)" xlink:href="#Q"/><use transform="matrix(0.05,0,0,0.05,81.8,0)" xlink:href="#U"/><use transform="matrix(0.05,0,0,0.05,91.8,0)" xlink:href="#ac"/><use transform="matrix(0.05,0,0,0.05,100.8,0)" xlink:href="#Q"/><use transform="matrix(0.05,0,0,0.05,106.75,0)" xlink:href="#P"/><use transform="matrix(0.05,0,0,0.05,116.75,0)" xlink:href="#Z"/><use transform="matrix(0.05,0,0,0.05,126.75,0)" xlink:href="#Y"/><use transform="matrix(0.05,0,0,0.05,131.75,0)" xlink:href="#P"/><use transform="matrix(0.05,0,0,0.05,141.75,0)" xlink:href="#W"/><use transform="matrix(0.05,0,0,0.05,151.75,0)" xlink:href="#U"/><use transform="matrix(0.05,0,0,0.05,161.75,0)" xlink:href="#Z"/><use transform="matrix(0.05,0,0,0.05,171.75,0)" xlink:href="#Y"/></g><path fill="#333" d="M141 0L90-78 38 0H4l68-98-65-92h35l48 74 47-74h35l-64 92 68 98h-35" id="ak"/><g id="p"><use transform="matrix(0.05,0,0,0.05,0,0)" xlink:href="#V"/><use transform="matrix(0.05,0,0,0.05,3.95,0)" xlink:href="#X"/><use transform="matrix(0.05,0,0,0.05,13.949999999999998,0)" xlink:href="#W"/><use transform="matrix(0.05,0,0,0.05,23.95,0)" xlink:href="#P"/><use transform="matrix(0.05,0,0,0.05,33.95,0)" xlink:href="#ak"/></g><path fill="#333" d="M233-177c-1 41-23 64-60 70L243 0h-38l-65-103H63V0H30v-248c88 3 205-21 203 71zM63-129c60-2 137 13 137-47 0-61-80-42-137-45v92" id="al"/><path fill="#333" d="M108 0H70L1-190h34L89-25l56-165h34" id="am"/><g id="q"><use transform="matrix(0.05,0,0,0.05,0,0)" xlink:href="#al"/><use transform="matrix(0.05,0,0,0.05,12.950000000000001,0)" xlink:href="#P"/><use transform="matrix(0.05,0,0,0.05,22.950000000000003,0)" xlink:href="#O"/><use transform="matrix(0.05,0,0,0.05,31.950000000000003,0)" xlink:href="#P"/><use transform="matrix(0.05,0,0,0.05,41.95,0)" xlink:href="#Q"/><use transform="matrix(0.05,0,0,0.05,47.900000000000006,0)" xlink:href="#am"/><use transform="matrix(0.05,0,0,0.05,56.900000000000006,0)" xlink:href="#Z"/><use transform="matrix(0.05,0,0,0.05,66.9,0)" xlink:href="#Y"/><use transform="matrix(0.05,0,0,0.05,71.9,0)" xlink:href="#V"/><use transform="matrix(0.05,0,0,0.05,75.85000000000001,0)" xlink:href="#ah"/><use transform="matrix(0.05,0,0,0.05,85.85000000000001,0)" xlink:href="#X"/><use transform="matrix(0.05,0,0,0.05,95.85000000000001,0)" xlink:href="#O"/></g><path d="M63-220v92h138v28H63V0H30v-248h175v28H63" id="an"/><g id="r"><use transform="matrix(0.05,0,0,0.05,0,0)" xlink:href="#an"/><use transform="matrix(0.05,0,0,0.05,10.950000000000001,0)" xlink:href="#S"/></g><g id="s"><use transform="matrix(0.05,0,0,0.05,0,0)" xlink:href="#ad"/><use transform="matrix(0.05,0,0,0.05,10,0)" xlink:href="#ae"/><use transform="matrix(0.05,0,0,0.05,13.949999999999998,0)" xlink:href="#Z"/><use transform="matrix(0.05,0,0,0.05,23.95,0)" xlink:href="#ac"/><use transform="matrix(0.05,0,0,0.05,32.95,0)" xlink:href="#P"/><use transform="matrix(0.05,0,0,0.05,42.95,0)" xlink:href="#U"/><use transform="matrix(0.05,0,0,0.05,52.95,0)" xlink:href="#V"/><use transform="matrix(0.05,0,0,0.05,56.900000000000006,0)" xlink:href="#W"/></g><g id="t"><use transform="matrix(0.05,0,0,0.05,0,0)" xlink:href="#O"/><use transform="matrix(0.05,0,0,0.05,9,0)" xlink:href="#Y"/><use transform="matrix(0.05,0,0,0.05,14,0)" xlink:href="#Z"/><use transform="matrix(0.05,0,0,0.05,24,0)" xlink:href="#Q"/><use transform="matrix(0.05,0,0,0.05,29.950000000000003,0)" xlink:href="#Y"/><use transform="matrix(0.05,0,0,0.05,34.95,0)" xlink:href="#U"/><use transform="matrix(0.05,0,0,0.05,44.95,0)" xlink:href="#W"/><use transform="matrix(0.05,0,0,0.05,54.95,0)" xlink:href="#Z"/><use transform="matrix(0.05,0,0,0.05,64.95,0)" xlink:href="#Y"/><use transform="matrix(0.05,0,0,0.05,69.95,0)" xlink:href="#P"/></g><g id="u"><use transform="matrix(0.05,0,0,0.05,0,0)" xlink:href="#W"/><use transform="matrix(0.05,0,0,0.05,10,0)" xlink:href="#Z"/><use transform="matrix(0.05,0,0,0.05,20,0)" xlink:href="#Y"/><use transform="matrix(0.05,0,0,0.05,25,0)" xlink:href="#P"/></g><g id="v"><use transform="matrix(0.05,0,0,0.05,0,0)" xlink:href="#P"/><use transform="matrix(0.05,0,0,0.05,10,0)" xlink:href="#X"/><use transform="matrix(0.05,0,0,0.05,20,0)" xlink:href="#W"/><use transform="matrix(0.05,0,0,0.05,30,0)" xlink:href="#U"/><use transform="matrix(0.05,0,0,0.05,40,0)" xlink:href="#W"/><use transform="matrix(0.05,0,0,0.05,50,0)" xlink:href="#Z"/><use transform="matrix(0.05,0,0,0.05,60,0)" xlink:href="#Y"/><use transform="matrix(0.05,0,0,0.05,65,0)" xlink:href="#P"/></g><g id="w"><use transform="matrix(0.05,0,0,0.05,0,0)" xlink:href="#ad"/><use transform="matrix(0.05,0,0,0.05,10,0)" xlink:href="#Q"/><use transform="matrix(0.05,0,0,0.05,15.949999999999998,0)" xlink:href="#V"/><use transform="matrix(0.05,0,0,0.05,19.9,0)" xlink:href="#ac"/><use transform="matrix(0.05,0,0,0.05,28.899999999999995,0)" xlink:href="#P"/></g><g id="x"><use transform="matrix(0.05,0,0,0.05,0,0)" xlink:href="#W"/><use transform="matrix(0.05,0,0,0.05,10,0)" xlink:href="#P"/><use transform="matrix(0.05,0,0,0.05,20,0)" xlink:href="#ac"/><use transform="matrix(0.05,0,0,0.05,29,0)" xlink:href="#V"/><use transform="matrix(0.05,0,0,0.05,32.95,0)" xlink:href="#aa"/><use transform="matrix(0.05,0,0,0.05,47.900000000000006,0)" xlink:href="#Z"/><use transform="matrix(0.05,0,0,0.05,57.900000000000006,0)" xlink:href="#ae"/></g><path d="M24-248c120-7 223 5 221 122C244-46 201 0 124 0H24v-248zM76-40c74 7 117-18 117-86 0-67-45-88-117-82v168" id="ao"/><path d="M133-34C117-15 103 5 69 4 32 3 11-16 11-54c-1-60 55-63 116-61 1-26-3-47-28-47-18 1-26 9-28 27l-52-2c7-38 36-58 82-57s74 22 75 68l1 82c-1 14 12 18 25 15v27c-30 8-71 5-69-32zm-48 3c29 0 43-24 42-57-32 0-66-3-65 30 0 17 8 27 23 27" id="ap"/><path d="M115-3C79 11 28 4 28-45v-112H4v-33h27l15-45h31v45h36v33H77v99c-1 23 16 31 38 25v30" id="aq"/><path d="M135-194c52 0 70 43 70 98 0 56-19 99-73 100-30 1-46-15-58-35L72 0H24l1-261h50v104c11-23 29-37 60-37zM114-30c31 0 40-27 40-66 0-37-7-63-39-63s-41 28-41 65c0 36 8 64 40 64" id="ar"/><path d="M137-138c1-29-70-34-71-4 15 46 118 7 119 86 1 83-164 76-172 9l43-7c4 19 20 25 44 25 33 8 57-30 24-41C81-84 22-81 20-136c-2-80 154-74 161-7" id="as"/><path d="M185-48c-13 30-37 53-82 52C43 2 14-33 14-96s30-98 90-98c62 0 83 45 84 108H66c0 31 8 55 39 56 18 0 30-7 34-22zm-45-69c5-46-57-63-70-21-2 6-4 13-4 21h74" id="at"/><g id="y"><use transform="matrix(0.05,0,0,0.05,0,0)" xlink:href="#ao"/><use transform="matrix(0.05,0,0,0.05,12.950000000000001,0)" xlink:href="#ap"/><use transform="matrix(0.05,0,0,0.05,22.950000000000003,0)" xlink:href="#aq"/><use transform="matrix(0.05,0,0,0.05,28.900000000000002,0)" xlink:href="#ap"/><use transform="matrix(0.05,0,0,0.05,38.900000000000006,0)" xlink:href="#ar"/><use transform="matrix(0.05,0,0,0.05,49.85000000000001,0)" xlink:href="#ap"/><use transform="matrix(0.05,0,0,0.05,59.85,0)" xlink:href="#as"/><use transform="matrix(0.05,0,0,0.05,69.85000000000001,0)" xlink:href="#at"/></g><path d="M127-220V0H93v-220H8v-28h204v28h-85" id="au"/><path d="M141-36C126-15 110 5 73 4 37 3 15-17 15-53c-1-64 63-63 125-63 3-35-9-54-41-54-24 1-41 7-42 31l-33-3c5-37 33-52 76-52 45 0 72 20 72 64v82c-1 20 7 32 28 27v20c-31 9-61-2-59-35zM48-53c0 20 12 33 32 33 41-3 63-29 60-74-43 2-92-5-92 41" id="av"/><path d="M115-194c53 0 69 39 70 98 0 66-23 100-70 100C84 3 66-7 56-30L54 0H23l1-261h32v101c10-23 28-34 59-34zm-8 174c40 0 45-34 45-75 0-40-5-75-45-74-42 0-51 32-51 76 0 43 10 73 51 73" id="aw"/><path d="M24 0v-261h32V0H24" id="ax"/><path d="M100-194c63 0 86 42 84 106H49c0 40 14 67 53 68 26 1 43-12 49-29l28 8c-11 28-37 45-77 45C44 4 14-33 15-96c1-61 26-98 85-98zm52 81c6-60-76-77-97-28-3 7-6 17-6 28h103" id="ay"/><path d="M135-143c-3-34-86-38-87 0 15 53 115 12 119 90S17 21 10-45l28-5c4 36 97 45 98 0-10-56-113-15-118-90-4-57 82-63 122-42 12 7 21 19 24 35" id="az"/><g id="z"><use transform="matrix(0.03888888888888889,0,0,0.03888888888888889,0,0)" xlink:href="#au"/><use transform="matrix(0.03888888888888889,0,0,0.03888888888888889,6.961111111111112,0)" xlink:href="#av"/><use transform="matrix(0.03888888888888889,0,0,0.03888888888888889,14.73888888888889,0)" xlink:href="#aw"/><use transform="matrix(0.03888888888888889,0,0,0.03888888888888889,22.516666666666673,0)" xlink:href="#ax"/><use transform="matrix(0.03888888888888889,0,0,0.03888888888888889,25.588888888888892,0)" xlink:href="#ay"/><use transform="matrix(0.03888888888888889,0,0,0.03888888888888889,33.36666666666667,0)" xlink:href="#az"/></g><path fill="#333" d="M30-248c87 1 191-15 191 75 0 78-77 80-158 76V0H30v-248zm33 125c57 0 124 11 124-50 0-59-68-47-124-48v98" id="aA"/><g id="A"><use transform="matrix(0.05,0,0,0.05,0,0)" xlink:href="#aA"/><use transform="matrix(0.05,0,0,0.05,12,0)" xlink:href="#ae"/><use transform="matrix(0.05,0,0,0.05,15.949999999999998,0)" xlink:href="#Z"/><use transform="matrix(0.05,0,0,0.05,25.950000000000003,0)" xlink:href="#ac"/><use transform="matrix(0.05,0,0,0.05,34.95,0)" xlink:href="#P"/><use transform="matrix(0.05,0,0,0.05,44.95,0)" xlink:href="#O"/></g><g id="B"><use transform="matrix(0.05,0,0,0.05,0,0)" xlink:href="#W"/><use transform="matrix(0.05,0,0,0.05,10,0)" xlink:href="#P"/><use transform="matrix(0.05,0,0,0.05,20,0)" xlink:href="#O"/><use transform="matrix(0.05,0,0,0.05,29,0)" xlink:href="#ac"/><use transform="matrix(0.05,0,0,0.05,38,0)" xlink:href="#Q"/><use transform="matrix(0.05,0,0,0.05,43.95,0)" xlink:href="#V"/><use transform="matrix(0.05,0,0,0.05,47.900000000000006,0)" xlink:href="#ad"/><use transform="matrix(0.05,0,0,0.05,57.900000000000006,0)" xlink:href="#Y"/><use transform="matrix(0.05,0,0,0.05,62.900000000000006,0)" xlink:href="#V"/><use transform="matrix(0.05,0,0,0.05,66.85000000000001,0)" xlink:href="#ah"/><use transform="matrix(0.05,0,0,0.05,76.85000000000001,0)" xlink:href="#X"/></g><g id="C"><use transform="matrix(0.05,0,0,0.05,0,0)" xlink:href="#Z"/><use transform="matrix(0.05,0,0,0.05,10,0)" xlink:href="#W"/><use transform="matrix(0.05,0,0,0.05,20,0)" xlink:href="#W"/><use transform="matrix(0.05,0,0,0.05,30,0)" xlink:href="#Q"/><use transform="matrix(0.05,0,0,0.05,35.95,0)" xlink:href="#P"/><use transform="matrix(0.05,0,0,0.05,45.95,0)" xlink:href="#O"/><use transform="matrix(0.05,0,0,0.05,54.95,0)" xlink:href="#O"/></g><path fill="#333" d="M106-169C34-169 62-67 57 0H25v-261h32l-1 103c12-21 28-36 61-36 89 0 53 116 60 194h-32v-121c2-32-8-49-39-48" id="aB"/><g id="D"><use transform="matrix(0.05,0,0,0.05,0,0)" xlink:href="#ad"/><use transform="matrix(0.05,0,0,0.05,10,0)" xlink:href="#aB"/><use transform="matrix(0.05,0,0,0.05,20,0)" xlink:href="#ah"/><use transform="matrix(0.05,0,0,0.05,30,0)" xlink:href="#Y"/><use transform="matrix(0.05,0,0,0.05,35,0)" xlink:href="#ah"/></g><g id="E"><use transform="matrix(0.05,0,0,0.05,0,0)" xlink:href="#ae"/><use transform="matrix(0.05,0,0,0.05,3.95,0)" xlink:href="#ah"/><use transform="matrix(0.05,0,0,0.05,13.949999999999998,0)" xlink:href="#ac"/><use transform="matrix(0.05,0,0,0.05,22.95,0)" xlink:href="#Z"/><use transform="matrix(0.05,0,0,0.05,32.95,0)" xlink:href="#Y"/><use transform="matrix(0.05,0,0,0.05,37.95,0)" xlink:href="#V"/><use transform="matrix(0.05,0,0,0.05,41.900000000000006,0)" xlink:href="#ah"/><use transform="matrix(0.05,0,0,0.05,51.900000000000006,0)" xlink:href="#X"/></g><g id="F"><use transform="matrix(0.05,0,0,0.05,0,0)" xlink:href="#Q"/><use transform="matrix(0.05,0,0,0.05,5.95,0)" xlink:href="#Z"/><use transform="matrix(0.05,0,0,0.05,15.949999999999998,0)" xlink:href="#Y"/><use transform="matrix(0.05,0,0,0.05,20.95,0)" xlink:href="#P"/></g><g id="G"><use transform="matrix(0.05,0,0,0.05,0,0)" xlink:href="#V"/><use transform="matrix(0.05,0,0,0.05,3.95,0)" xlink:href="#X"/><use transform="matrix(0.05,0,0,0.05,13.949999999999998,0)" xlink:href="#Y"/><use transform="matrix(0.05,0,0,0.05,18.95,0)" xlink:href="#P"/><use transform="matrix(0.05,0,0,0.05,28.950000000000003,0)" xlink:href="#ab"/><use transform="matrix(0.05,0,0,0.05,38.95,0)" xlink:href="#P"/><use transform="matrix(0.05,0,0,0.05,48.95,0)" xlink:href="#Q"/></g><path fill="#333" d="M212-179c-10-28-35-45-73-45-59 0-87 40-87 99 0 60 29 101 89 101 43 0 62-24 78-52l27 14C228-24 195 4 139 4 59 4 22-46 18-125c-6-104 99-153 187-111 19 9 31 26 39 46" id="aC"/><g id="H"><use transform="matrix(0.05,0,0,0.05,0,0)" xlink:href="#aC"/><use transform="matrix(0.05,0,0,0.05,12.950000000000001,0)" xlink:href="#Q"/><use transform="matrix(0.05,0,0,0.05,18.900000000000002,0)" xlink:href="#P"/><use transform="matrix(0.05,0,0,0.05,28.900000000000002,0)" xlink:href="#Z"/><use transform="matrix(0.05,0,0,0.05,38.900000000000006,0)" xlink:href="#Y"/><use transform="matrix(0.05,0,0,0.05,43.900000000000006,0)" xlink:href="#P"/><use transform="matrix(0.05,0,0,0.05,53.900000000000006,0)" xlink:href="#W"/><use transform="matrix(0.05,0,0,0.05,63.900000000000006,0)" xlink:href="#U"/><use transform="matrix(0.05,0,0,0.05,73.9,0)" xlink:href="#Z"/><use transform="matrix(0.05,0,0,0.05,83.9,0)" xlink:href="#Y"/></g><path fill="#3a414a" d="M76-208v77h127v40H76V0H24v-248h183v40H76" id="aD"/><path fill="#3a414a" d="M25-224v-37h50v37H25zM25 0v-190h50V0H25" id="aE"/><path fill="#3a414a" d="M135-194c87-1 58 113 63 194h-50c-7-57 23-157-34-157-59 0-34 97-39 157H25l-1-190h47c2 12-1 28 3 38 12-26 28-41 61-42" id="aF"/><path fill="#3a414a" d="M133-34C117-15 103 5 69 4 32 3 11-16 11-54c-1-60 55-63 116-61 1-26-3-47-28-47-18 1-26 9-28 27l-52-2c7-38 36-58 82-57s74 22 75 68l1 82c-1 14 12 18 25 15v27c-30 8-71 5-69-32zm-48 3c29 0 43-24 42-57-32 0-66-3-65 30 0 17 8 27 23 27" id="aG"/><path fill="#3a414a" d="M25 0v-261h50V0H25" id="aH"/><g id="I"><use transform="matrix(0.1055555555555555,0,0,0.1055555555555555,0,0)" xlink:href="#aD"/><use transform="matrix(0.1055555555555555,0,0,0.1055555555555555,23.116666666666653,0)" xlink:href="#aE"/><use transform="matrix(0.1055555555555555,0,0,0.1055555555555555,33.6722222222222,0)" xlink:href="#aF"/><use transform="matrix(0.1055555555555555,0,0,0.1055555555555555,56.788888888888856,0)" xlink:href="#aG"/><use transform="matrix(0.1055555555555555,0,0,0.1055555555555555,77.89999999999995,0)" xlink:href="#aH"/></g><path fill="#3a414a" d="M67-125c0 53 21 87 73 88 37 1 54-22 65-47l45 17C233-25 199 4 140 4 58 4 20-42 15-125 8-235 124-281 211-232c18 10 29 29 36 50l-46 12c-8-25-30-41-62-41-52 0-71 34-72 86" id="aI"/><path fill="#3a414a" d="M135-194c53 0 70 44 70 98 0 56-19 98-73 100-31 1-45-17-59-34 3 33 2 69 2 105H25l-1-265h48c2 10 0 23 3 31 11-24 29-35 60-35zM114-30c33 0 39-31 40-66 0-38-9-64-40-64-56 0-55 130 0 130" id="aJ"/><path fill="#3a414a" d="M137-138c1-29-70-34-71-4 15 46 118 7 119 86 1 83-164 76-172 9l43-7c4 19 20 25 44 25 33 8 57-30 24-41C81-84 22-81 20-136c-2-80 154-74 161-7" id="aK"/><path fill="#3a414a" d="M115-3C79 11 28 4 28-45v-112H4v-33h27l15-45h31v45h36v33H77v99c-1 23 16 31 38 25v30" id="aL"/><path fill="#3a414a" d="M110-194c64 0 96 36 96 99 0 64-35 99-97 99-61 0-95-36-95-99 0-62 34-99 96-99zm-1 164c35 0 45-28 45-65 0-40-10-65-43-65-34 0-45 26-45 65 0 36 10 65 43 65" id="aM"/><path fill="#3a414a" d="M185-48c-13 30-37 53-82 52C43 2 14-33 14-96s30-98 90-98c62 0 83 45 84 108H66c0 31 8 55 39 56 18 0 30-7 34-22zm-45-69c5-46-57-63-70-21-2 6-4 13-4 21h74" id="aN"/><g id="J"><use transform="matrix(0.1055555555555555,0,0,0.1055555555555555,0,0)" xlink:href="#aI"/><use transform="matrix(0.1055555555555555,0,0,0.1055555555555555,27.338888888888874,0)" xlink:href="#aG"/><use transform="matrix(0.1055555555555555,0,0,0.1055555555555555,48.449999999999974,0)" xlink:href="#aJ"/><use transform="matrix(0.1055555555555555,0,0,0.1055555555555555,71.56666666666663,0)" xlink:href="#aK"/><use transform="matrix(0.1055555555555555,0,0,0.1055555555555555,92.67777777777773,0)" xlink:href="#aL"/><use transform="matrix(0.1055555555555555,0,0,0.1055555555555555,105.23888888888884,0)" xlink:href="#aM"/><use transform="matrix(0.1055555555555555,0,0,0.1055555555555555,128.3555555555555,0)" xlink:href="#aF"/><use transform="matrix(0.1055555555555555,0,0,0.1055555555555555,151.47222222222214,0)" xlink:href="#aN"/></g><path fill="#3a414a" d="M240-174c0 40-23 61-54 70L253 0h-59l-57-94H76V0H24v-248c93 4 217-23 216 74zM76-134c48-2 112 12 112-38 0-48-66-32-112-35v73" id="aO"/><path fill="#3a414a" d="M135-150c-39-12-60 13-60 57V0H25l-1-190h47c2 13-1 29 3 40 6-28 27-53 61-41v41" id="aP"/><path fill="#3a414a" d="M128 0H69L1-190h53L99-40l48-150h52" id="aQ"/><g id="K"><use transform="matrix(0.1055555555555555,0,0,0.1055555555555555,0,0)" xlink:href="#aO"/><use transform="matrix(0.1055555555555555,0,0,0.1055555555555555,27.338888888888874,0)" xlink:href="#aN"/><use transform="matrix(0.1055555555555555,0,0,0.1055555555555555,48.449999999999974,0)" xlink:href="#aK"/><use transform="matrix(0.1055555555555555,0,0,0.1055555555555555,69.56111111111107,0)" xlink:href="#aN"/><use transform="matrix(0.1055555555555555,0,0,0.1055555555555555,90.67222222222217,0)" xlink:href="#aP"/><use transform="matrix(0.1055555555555555,0,0,0.1055555555555555,105.44999999999995,0)" xlink:href="#aQ"/><use transform="matrix(0.1055555555555555,0,0,0.1055555555555555,126.56111111111105,0)" xlink:href="#aG"/><use transform="matrix(0.1055555555555555,0,0,0.1055555555555555,147.67222222222216,0)" xlink:href="#aL"/><use transform="matrix(0.1055555555555555,0,0,0.1055555555555555,160.23333333333326,0)" xlink:href="#aE"/><use transform="matrix(0.1055555555555555,0,0,0.1055555555555555,170.7888888888888,0)" xlink:href="#aM"/><use transform="matrix(0.1055555555555555,0,0,0.1055555555555555,193.90555555555545,0)" xlink:href="#aF"/></g><path fill="#3a414a" d="M135-194c52 0 70 43 70 98 0 56-19 99-73 100-30 1-46-15-58-35L72 0H24l1-261h50v104c11-23 29-37 60-37zM114-30c31 0 40-27 40-66 0-37-7-63-39-63s-41 28-41 65c0 36 8 64 40 64" id="aR"/><path fill="#3a414a" d="M147 0L96-86 75-71V0H25v-261h50v150l67-79h53l-66 74L201 0h-54" id="aS"/><path fill="#3a414a" d="M195-6C206 82 75 100 31 46c-4-6-6-13-8-21l49-6c3 16 16 24 34 25 40 0 42-37 40-79-11 22-30 35-61 35-53 0-70-43-70-97 0-56 18-96 73-97 30 0 46 14 59 34l2-30h47zm-90-29c32 0 41-27 41-63 0-35-9-62-40-62-32 0-39 29-40 63 0 36 9 62 39 62" id="aT"/><g id="L"><use transform="matrix(0.1055555555555555,0,0,0.1055555555555555,0,0)" xlink:href="#aR"/><use transform="matrix(0.1055555555555555,0,0,0.1055555555555555,23.116666666666653,0)" xlink:href="#aM"/><use transform="matrix(0.1055555555555555,0,0,0.1055555555555555,46.233333333333306,0)" xlink:href="#aM"/><use transform="matrix(0.1055555555555555,0,0,0.1055555555555555,69.34999999999997,0)" xlink:href="#aS"/><use transform="matrix(0.1055555555555555,0,0,0.1055555555555555,90.46111111111107,0)" xlink:href="#aE"/><use transform="matrix(0.1055555555555555,0,0,0.1055555555555555,101.01666666666662,0)" xlink:href="#aF"/><use transform="matrix(0.1055555555555555,0,0,0.1055555555555555,124.13333333333327,0)" xlink:href="#aT"/></g></defs></g></svg>